<svg id="Grupo_118" data-name="Grupo 118" xmlns="http://www.w3.org/2000/svg" xmlns:xlink="http://www.w3.org/1999/xlink" width="213.749" height="44.832" viewBox="0 0 213.749 44.832">
  <defs>
    <clipPath id="clip-path">
      <rect id="Rectángulo_68" data-name="Rectángulo 68" width="213.749" height="44.832" fill="none"/>
    </clipPath>
  </defs>
  <g id="Logo" clip-path="url(#clip-path)">
    <path id="Trazado_35" data-name="Trazado 35" d="M210.007,20.874a2.642,2.642,0,0,1-1.162.274,1.446,1.446,0,0,1-1.437-1.648,1.744,1.744,0,0,1,1.4-1.85l1.2-.44Zm2.433.916V15.195c0-1.978-1.623-2.565-3.245-2.565-2.008,0-3.871,1.1-3.871,2.328a1.091,1.091,0,0,0,1.106,1.08,1.064,1.064,0,1,0-.146-2.089v-.183a3.408,3.408,0,0,1,1.99-.805c1.216,0,1.733.53,1.733,1.739v2.328l-2.526.824c-1.29.457-2.525,1.081-2.525,2.326a1.975,1.975,0,0,0,2.176,1.978,4.224,4.224,0,0,0,2.691-1.008h.185v1.008h.183l3.559-.183V21.79Zm-11.171-6.65c.646-1.464,1.512-2.51,2.617-2.51a1.187,1.187,0,0,1,1.253,1.155,1.246,1.246,0,1,1-2.488-.091h-.185a6.841,6.841,0,0,0-1.382,2.454V21.7l1.309.092v.183h-5.051V21.79l1.309-.092V13h-1.125v-.182l3.373-.185h.185v2.51ZM186.282,13v-.182l3.5-.185h.24v7.017c0,.951.314,1.721,1.327,1.721.718,0,1.143-.329,1.953-1.319V13H192v-.182l3.5-.185h.239v9.031h1.31v.185l-3.558.311H193.3V20.508h-.185A3.777,3.777,0,0,1,190,22.156c-1.233,0-2.413-.733-2.413-2.748V13Zm-2.711,6.723c0,1.558.406,1.924,1.18,1.924a3.12,3.12,0,0,0,1.235-.312v.184a6.518,6.518,0,0,1-2.765.641c-1.29,0-2.082-.641-2.082-2.2V13.089H179.9v-.183l1.235-.092,2.248-2.2h.185v2.2h2.415v.276h-2.415Zm-7.484-4.58c.645-1.464,1.511-2.51,2.616-2.51a1.186,1.186,0,0,1,1.253,1.155,1.246,1.246,0,1,1-2.488-.091h-.183a6.821,6.821,0,0,0-1.383,2.454V21.7l1.309.092v.183h-5.05V21.79l1.309-.092V13h-1.126v-.182l3.374-.185h.185v2.51Zm-8.223-2.325c.886,0,1.807.916,1.235,3.572l-3.447.091c.111-2.619,1-3.663,2.212-3.663m3.557,6.228a3.186,3.186,0,0,1-2.708,1.5c-1.641,0-3.042-1.375-3.1-3.884h5.805c.554-3.205-1.713-4.031-3.465-4.031a4.64,4.64,0,0,0-4.755,4.819,4.466,4.466,0,0,0,4.609,4.708,3.877,3.877,0,0,0,3.8-3.114Zm-14.156,2.6a2.814,2.814,0,0,1-1.641-.6V13.986a2.594,2.594,0,0,1,1.641-.806c1.254,0,2.3.787,2.3,4.212,0,3.536-1.05,4.25-2.3,4.25m1.069-9.014a3.381,3.381,0,0,0-2.525.971h-.185v-5h-.185c-1.676.092-2.525.148-3.373.185v.183h1.124V22.156h.185l2.248-.733h.185a3.438,3.438,0,0,0,2.285.733c2.4,0,4.111-2.015,4.111-4.763s-1.475-4.763-3.871-4.763m-13.329,9.343c-2.451,0-3.871-2.254-3.871-6.412s1.419-6.411,3.871-6.411,3.871,2.254,3.871,6.411-1.419,6.412-3.871,6.412m0-13.006a6.5,6.5,0,0,0-6.507,6.594,6.508,6.508,0,1,0,13.015,0,6.5,6.5,0,0,0-6.508-6.594M56.909,34.8a5.254,5.254,0,0,0,2.67-.722l.12-1.929h-.12l-.547,1.2a2.192,2.192,0,0,1-2.123,1.327C55.1,34.679,54,33.234,54,30.461s1.1-4.22,2.911-4.22a2.288,2.288,0,0,1,2.123,1.327l.485,1.2h.121l-.059-1.928a5.257,5.257,0,0,0-2.67-.722,4.056,4.056,0,0,0-4,4.34,4.056,4.056,0,0,0,4,4.339m72.91-3.255a2.921,2.921,0,0,0,2.912,3.135,2.413,2.413,0,0,0,2.3-1.808h-.121a2.194,2.194,0,0,1-1.941,1.146c-1.3,0-2.206-1.062-2.206-2.846,0-1.4.751-2.616,2.085-2.616a2.173,2.173,0,0,1,1.675.627V29.3c-1.092-.17-1.069,1.157-.219,1.157a.622.622,0,0,0,.606-.663c0-.6-.667-1.387-2.122-1.387a2.972,2.972,0,0,0-2.973,3.133M127.513,26a.725.725,0,1,0,.728.725.727.727,0,0,0-.728-.725M128,28.411h-.121l-1.819.119v.121h.969v5.727l-1.09.06v.121h3.154v-.121L128,34.378Zm-5.338,1.566V28.411h-.121l-1.819.119v.121h.97v5.727l-1.091.06v.121h3.155v-.121l-1.094-.06V30.52a5.476,5.476,0,0,1,1.032-1.567h.121a.638.638,0,1,0,1.273.059.621.621,0,0,0-.667-.6c-.606,0-1.092.6-1.638,1.566Zm-5.884,5.038c-.279.882-.97,2.075-1.517,2.075H115.2c.181-1.265-1.153-1.084-1.153-.361,0,.337.243.6.788.6,1.153,0,1.7-1.327,2.026-2.171l2.064-6.209,1.066-.3v-.12H117.81v.12l.933.3-1.468,4.593h-.122l-1.987-4.834,1.189-.061v-.12H113.2v.12l.812.061Zm-7.315-.577V26.3l1.092-.059v-.12H107.4v.12l1.092.059v8.078l-1.092.06v.121h6.189l.12-1.93h-.12l-.789,1.748Zm-10.6-3.5a1.56,1.56,0,0,1,1.591-.832c2.559,0,2.258,4.51-1.516,4.51-2.743,0-3.167-3.207-2.135-4.45a1.36,1.36,0,0,0,.739.349c.764,0,.5-.988-.716-.433-1.044-2.158.132-3.846,1.637-3.846a2.319,2.319,0,0,1,1.82.663v.121c-1.042-.3-1.213,1.144-.243,1.144a.621.621,0,0,0,.608-.663c0-.6-.608-1.385-2.123-1.385-2.743,0-4.005,2.507-1.8,4C94.33,31,94.343,34.8,98.708,34.8c3.762,0,4.418-3.772,2.512-4.689v-.12c1.638,0,2.584-.977,2.584-1.7s-.412-.9-.752-.9c-.874,0-.923,1.446.532,1.145v.121a2.407,2.407,0,0,1-2.351,1.193c-1.749,0-2.525.592-2.525,1.385a.755.755,0,0,0,.753.857c.982,0,.729-1.675-.6-1.024Zm-13.57.723A2.921,2.921,0,0,0,88.208,34.8a2.413,2.413,0,0,0,2.305-1.808h-.122a2.188,2.188,0,0,1-1.94,1.145c-1.3,0-2.209-1.061-2.209-2.844,0-1.4.752-2.618,2.088-2.618A2.162,2.162,0,0,1,90,29.3v.12c-1.092-.17-1.067,1.157-.217,1.157a.62.62,0,0,0,.6-.663c0-.6-.667-1.388-2.122-1.388A2.974,2.974,0,0,0,85.3,31.665m-2.3-5.544a.724.724,0,1,0,.727.722.725.725,0,0,0-.727-.722m.485,2.409h-.121l-1.82.121v.12h.973V34.5l-1.094.061v.12h3.155v-.12L83.477,34.5Zm-7.1,5.546a2.728,2.728,0,0,0,1.82.724c1.273,0,2.246-.663,2.246-1.808,0-1.085-.984-1.543-1.882-1.868-.668-.243-1.457-.6-1.457-1.386a1.072,1.072,0,0,1,1.153-1.086,1.609,1.609,0,0,1,1.044.4,2.706,2.706,0,0,1,.776,1.289H80.2V28.531H80.08l-.061.663a2.628,2.628,0,0,0-1.7-.663c-1.249,0-2.062.663-2.062,1.626,0,1.025.7,1.435,1.637,1.808.692.278,1.578.543,1.578,1.447a1.267,1.267,0,0,1-1.394,1.266,1.43,1.43,0,0,1-1.116-.543,3.705,3.705,0,0,1-.643-1.145H76.2V34.8h.121Zm-5.336,0a2.726,2.726,0,0,0,1.819.724c1.273,0,2.243-.663,2.243-1.808,0-1.085-.981-1.543-1.878-1.868-.668-.243-1.456-.6-1.456-1.386a1.071,1.071,0,0,1,1.153-1.086,1.6,1.6,0,0,1,1.042.4,2.7,2.7,0,0,1,.776,1.289h.121V28.531h-.121l-.061.663a2.625,2.625,0,0,0-1.7-.663c-1.25,0-2.063.663-2.063,1.626,0,1.025.7,1.435,1.637,1.808.692.278,1.576.543,1.576,1.447a1.267,1.267,0,0,1-1.393,1.266,1.428,1.428,0,0,1-1.116-.543,3.665,3.665,0,0,1-.643-1.145H70.86V34.8h.122Zm-2.973-.121a2.6,2.6,0,0,1-1.273.3,1.021,1.021,0,0,1-1.152-.966c0-.481.182-.94,1.091-1.265l1.334-.483Zm0,.845h.121l1.941-.12v-.12H69.041V29.977c0-1.024-.752-1.446-1.819-1.446-1.323,0-2.306.722-2.306,1.326a.6.6,0,0,0,.607.6c.788,0,.886-1.123-.062-1.147v-.12a2.507,2.507,0,0,1,1.4-.483c.921,0,1.211.542,1.211,1.265v1.447l-1.576.543c-1.14.4-1.82.819-1.82,1.567a1.243,1.243,0,0,0,1.4,1.265,3.234,3.234,0,0,0,1.879-.663h.121Zm-5.338-.3,1.092.061v.12H60.67v-.12l1.092-.061V26.121h-.97V26l1.819-.12h.121Zm68.125-13.35h-.185a4.227,4.227,0,0,1-2.691,1.007,1.973,1.973,0,0,1-2.175-1.978c0-1.246,1.235-1.868,2.525-2.326l2.525-.824V14.7c0-1.208-.517-1.739-1.733-1.739a3.407,3.407,0,0,0-1.99.807v.182a1.064,1.064,0,1,1,.147,2.089,1.089,1.089,0,0,1-1.106-1.08c0-1.227,1.861-2.326,3.87-2.326,1.622,0,3.245.585,3.245,2.564V21.79H134.6v.183l-3.557.183h-.185Zm0-3.938-1.2.439a1.745,1.745,0,0,0-1.4,1.85,1.448,1.448,0,0,0,1.438,1.649,2.634,2.634,0,0,0,1.161-.275Zm-5.476,4.578v.183H120.7V21.79l.941-.091V15.141c0-.953-.315-1.721-1.328-1.721-.718,0-1.272.4-2.138,1.318V21.7l1.309.091v.183h-5.051V21.79l1.309-.091V13h-1.126v-.183l3.374-.183h.185V14.28h.185a4.214,4.214,0,0,1,3.3-1.649c1.235,0,2.416.733,2.416,2.748V21.7Zm-21.014-4.4a4.665,4.665,0,1,1,9.327,0,4.665,4.665,0,1,1-9.327,0m2.636,0c0,2.8.535,4.58,2.027,4.58s2.028-1.777,2.028-4.58-.554-4.579-2.028-4.579S107,14.591,107,17.393M102.69,21.7,104,21.79v.185H98.948V21.79l1.307-.091V8.967H99.133V8.784l3.373-.183h.185ZM92.4,16.662c.055,2.509,1.456,3.883,3.1,3.883a3.187,3.187,0,0,0,2.71-1.5h.185a3.879,3.879,0,0,1-3.8,3.114,4.465,4.465,0,0,1-4.609-4.708,4.64,4.64,0,0,1,4.757-4.817c1.75,0,4.017.824,3.465,4.031Zm.037-.185,3.447-.09c.572-2.657-.349-3.573-1.234-3.573-1.218,0-2.1,1.044-2.213,3.663m-11.669.971a4.748,4.748,0,0,1,4.885-4.817c2.138,0,3.336,1.136,3.336,2.345a1.1,1.1,0,0,1-1.106,1.135c-1.585,0-1.658-2.38.369-2.106v-.182a2.915,2.915,0,0,0-2.267-.936c-1.659,0-2.8,1.448-2.8,3.939,0,2.51,1.457,3.718,3.1,3.718a3.112,3.112,0,0,0,2.71-1.5h.185a3.876,3.876,0,0,1-3.8,3.114,4.465,4.465,0,0,1-4.609-4.708m-3.816-2.308c.646-1.466,1.512-2.51,2.617-2.51a1.186,1.186,0,0,1,1.254,1.153,1.246,1.246,0,1,1-2.489-.091h-.185a6.891,6.891,0,0,0-1.382,2.454V21.7l1.309.091v.185h-5.05V21.79l1.309-.091V13H73.214v-.183l3.373-.183h.185v2.51Zm-7.963,6.008h-.185a4.228,4.228,0,0,1-2.691,1.007,1.974,1.974,0,0,1-2.176-1.978c0-1.246,1.235-1.868,2.525-2.326l2.527-.824V14.7c0-1.208-.517-1.739-1.733-1.739a3.407,3.407,0,0,0-1.991.807v.182a1.064,1.064,0,1,1,.147,2.089,1.09,1.09,0,0,1-1.105-1.08c0-1.227,1.862-2.326,3.871-2.326,1.622,0,3.245.585,3.245,2.564V21.79h1.309v.183l-3.557.183h-.185Zm0-3.938-1.2.439a1.745,1.745,0,0,0-1.4,1.85,1.447,1.447,0,0,0,1.437,1.649,2.64,2.64,0,0,0,1.163-.275ZM58.281,15.287c3.594.037,4.664,1.887,4.664,3.3,0,2.015-1.475,3.39-4.24,3.39h-5.9V21.79l1.309-.091V9.425l-1.309-.091V9.151h5.346c2.765,0,4.24,1.282,4.24,3.114,0,1.466-1.346,2.748-4.111,2.985Zm-1.732-.055h.626c1.973,0,2.673-1.079,2.673-2.784,0-1.832-.516-3.114-2.119-3.114H56.55Zm0,.183V21.79H58.1c1.788,0,2.305-1.466,2.305-3.3,0-1.851-.831-3.079-2.8-3.079ZM22.934,0C36.265,0,45.866,9.248,45.866,22.259c0,13.632-10.3,22.573-22.932,22.573S0,35.891,0,22.259C0,9.248,9.6,0,22.934,0m0,44.2c4.625,0,17.883-3.006,17.883-21.945,0-20-13.161-21.632-17.883-21.632S5.049,2.262,5.049,22.259C5.049,41.2,18.308,44.2,22.934,44.2m-.4-18.416c0,.2.1.2.227.2s.228,0,.228-.2a.227.227,0,0,0-.455,0m.453-9.276c0-.2-.1-.2-.227-.2s-.227,0-.227.2a.227.227,0,0,0,.453,0M33.725,27.727c0-4.165-3.815-6.163-7.028-6.163H23.52a.5.5,0,1,1,0-.994h2.5c3,0,7.012-1.981,7.012-6.14,0-4.062-3.814-5.873-7.693-5.873v.448c2.134,0,3.368,2.18,3.368,5.562,0,4.286-1.156,5.555-2.9,5.555s-2.81-1.364-2.81-3.615h-.453s.08,4.4-2.356,4.4v.448c2.437,0,2.356,4.418,2.356,4.418h.453c0-2.248,1.019-3.765,2.84-3.765,2.31,0,3.548,2.5,3.548,5.883,0,5.087-2.117,6.249-3.855,6.249v.448c4.253-.041,8.2-2.37,8.2-6.861M25.344,8.556c-3,0-5.166,1.686-5.166,2.988A1.674,1.674,0,0,0,21.9,13.227c1.194,0,1.656-.65,1.656-1.339,0-.573-.27-.766-.27-1.377,0-1.227,1.09-1.5,2.052-1.5m.186,25.133c-1.423,0-2.463-.412-2.463-1.675,0-.823.521-1.017.521-1.59,0-.651-.469-1.477-1.831-1.477a1.661,1.661,0,0,0-1.57,1.823c0,1.758,1.84,3.366,5.343,3.366m-5.812-.233h.469V8.792h-.469Zm-1.6,0H13.794V8.792h4.315Z" fill="#1d1d1b"/>
  </g>
</svg>
